<?xml version="1.0" encoding="utf-8"?>
<!-- Generator: Adobe Illustrator 21.0.0, SVG Export Plug-In . SVG Version: 6.00 Build 0)  -->
<!DOCTYPE svg PUBLIC "-//W3C//DTD SVG 1.1//EN" "http://www.w3.org/Graphics/SVG/1.1/DTD/svg11.dtd">
<svg version="1.1" id="quote" xmlns="http://www.w3.org/2000/svg" xmlns:xlink="http://www.w3.org/1999/xlink" x="0px" y="0px"
	 viewBox="0 0 30 30" style="enable-background:new 0 0 30 30;" xml:space="preserve">
<style type="text/css">
	.st0{display:none;}
	.st1{display:inline;}
</style>
<g class="st0">
	<path class="st1" d="M9,21.6v-4.6c-1.2-0.1-2.3-0.6-3.1-1.5c-0.8-0.9-1.2-1.9-1.2-3.1c0-0.9,0.2-1.7,0.6-2.4c0.4-0.7,1-1.3,1.7-1.7
		c0.7-0.4,1.5-0.6,2.3-0.6c0.9,0,1.7,0.2,2.5,0.7c0.8,0.4,1.3,1.1,1.8,1.9c0.4,0.8,0.6,1.7,0.6,2.7c0,0.9-0.1,1.7-0.3,2.5
		c-0.2,0.8-0.5,1.6-0.9,2.3c-0.4,0.7-0.8,1.4-1.4,2c-0.5,0.5-0.8,0.8-1.1,1C10.2,21,9.7,21.3,9,21.6z M20.6,21.6v-4.6
		c-1.3-0.2-2.4-0.8-3.1-1.6c-0.8-0.8-1.2-1.9-1.2-3.1c0-0.8,0.2-1.6,0.6-2.4c0.4-0.7,1-1.3,1.7-1.7c0.7-0.4,1.5-0.6,2.3-0.6
		c0.9,0,1.8,0.2,2.5,0.6c0.8,0.5,1.3,1.1,1.7,1.8c0.4,0.8,0.6,1.7,0.6,2.7c0,2.8-0.9,5.1-2.6,7c-0.3,0.4-0.7,0.7-1.1,0.9
		C21.8,21,21.3,21.3,20.6,21.6z"/>
</g>
<g>
	<path d="M8.1,22.2l-1.3-1.6c3.3-2.7,5-5,5-6.8c0-0.2,0-0.5,0-0.8c-0.3,0.1-0.5,0.2-0.8,0.3c-0.3,0.1-0.5,0.1-0.7,0.1
		c-0.8,0-1.4-0.3-1.9-0.8c-0.5-0.5-0.7-1.1-0.7-1.9c0-0.8,0.3-1.4,0.9-2C9,8.1,9.7,7.8,10.5,7.8c1.1,0,2.1,0.4,2.8,1.3
		c0.8,0.9,1.2,2,1.2,3.4c0,0.9-0.2,1.9-0.6,2.9c-0.4,1-0.9,1.9-1.6,2.8C11.6,19.1,10.2,20.4,8.1,22.2z M16.8,22.2l-1.3-1.6
		c3.3-2.7,5-5,5-6.8c0-0.2,0-0.5,0-0.8c-0.3,0.1-0.5,0.2-0.8,0.3c-0.3,0.1-0.5,0.1-0.8,0.1c-0.8,0-1.4-0.3-1.9-0.8
		c-0.5-0.5-0.7-1.1-0.7-1.9c0-0.8,0.3-1.4,0.9-2c0.6-0.6,1.3-0.9,2.1-0.9c1.1,0,2.1,0.4,2.8,1.3c0.8,0.9,1.2,2,1.2,3.4
		c0,0.9-0.2,1.9-0.6,2.9c-0.4,1-0.9,1.9-1.6,2.8C20.3,19.1,18.9,20.4,16.8,22.2z"/>
</g>
</svg>
